<?xml version="1.0" encoding="UTF-8"?>
<svg id="Capa_2" data-name="Capa 2" xmlns="http://www.w3.org/2000/svg" viewBox="0 0 246.43 245.33">
  <defs>
    <style>
      .cls-1 {
        fill: #fff;
      }
    </style>
  </defs>
  <g id="Layer_1" data-name="Layer 1">
    <g>
      <path class="cls-1" d="M246.43,245.33l-32.83-40.34c19.72-21.77,31.73-50.64,31.73-82.33C245.33,54.92,190.41,0,122.67,0S0,54.92,0,122.67s54.92,122.67,122.67,122.67c.63,0,1.26-.01,1.89-.02l-.03.02h121.91ZM111.61,211.24c-44.66-5.52-78.2-43.6-78.2-88.57S66.96,39.61,111.61,34.09c3.67-.45,7.36-.68,11.06-.68s7.39.23,11.05.68c44.66,5.52,78.2,43.6,78.2,88.57s-33.55,83.06-78.2,88.57c-3.67.45-7.36.68-11.05.68s-7.39-.23-11.06-.68Z"/>
      <path class="cls-1" d="M176.51,122.67c0-25.99-18.65-48.42-44.26-52.99l-.7-.12c-2.93-.49-5.91-.73-8.88-.73s-5.95.25-8.89.73c-25.93,4.3-44.96,26.84-44.96,53.11s18.62,48.4,44.21,52.98l.75.12c2.93.49,5.91.73,8.88.73s5.95-.25,8.88-.73c25.93-4.3,44.96-26.84,44.96-53.11Z"/>
    </g>
  </g>
</svg>