<?xml version="1.0" encoding="UTF-8"?>
<svg id="Layer_2" data-name="Layer 2" xmlns="http://www.w3.org/2000/svg" viewBox="0 0 500 70.66" fill="currentColor">
  
  <g id="Layer_1-2" data-name="Layer 1">
    <g>
      <g>
        <path d="M67.49,70.66l-8.99-11.05c5.4-5.96,8.69-13.87,8.69-22.55,0-18.55-15.04-33.6-33.6-33.6S0,18.51,0,37.06s15.04,33.6,33.6,33.6c.17,0,.35,0,.52,0h0s33.39,0,33.39,0ZM30.57,61.32c-12.23-1.51-21.42-11.94-21.42-24.26S18.34,14.32,30.57,12.81c1-.12,2.02-.19,3.03-.19s2.02.06,3.03.19c12.23,1.51,21.42,11.94,21.42,24.26s-9.19,22.75-21.42,24.26c-1,.12-2.02.19-3.03.19s-2.02-.06-3.03-.19Z"/>
        <path d="M48.34,37.06c0-7.12-5.11-13.26-12.12-14.51l-.19-.03c-.8-.13-1.62-.2-2.43-.2s-1.63.07-2.43.2c-7.1,1.18-12.31,7.35-12.31,14.55s5.1,13.25,12.11,14.51l.2.03c.8.13,1.62.2,2.43.2s1.63-.07,2.43-.2c7.1-1.18,12.31-7.35,12.31-14.55Z"/>
      </g>
      <path fill-rule="evenodd" d="M360.67,51.68v-26.78c0-.32.26-.57.57-.57h8.35c.27,0,.49-.22.49-.49v-8.76c0-.27-.22-.49-.49-.49h-8.35c-.32,0-.57-.26-.57-.57V1.71c0-.27-.22-.49-.49-.49h-8.72c-.27,0-.49.22-.49.49v52.62c0,4.2,3.43,7.62,7.62,7.62h10.99c.27,0,.49-.22.49-.49v-8.72c0-.27-.22-.49-.49-.49h-8.35c-.32,0-.57-.26-.57-.57h0Z"/>
      <path fill-rule="evenodd" d="M316.16,27.4c-.08-.36-.07-.74,0-1.1.26-1.21,1.21-1.97,2.45-1.97h24.45c.27,0,.49-.22.49-.49v-8.76c0-.27-.22-.49-.49-.49h-24.45c-4.48,0-8.7,2.78-10.83,6.66-.52.94-.91,1.95-1.14,3-.26,1.22-.39,2.46-.32,3.71.17,2.93,1.43,5.29,3.45,7.37,1.08,1.12,2.37,2.01,3.79,2.66l20.89,9.44c.72.33,1.25.93,1.42,1.71.08.36.07.74,0,1.1-.26,1.2-1.21,1.97-2.45,1.97h-24.51c-.27,0-.49.22-.49.49v8.76c0,.27.22.49.49.49h24.51c4.48,0,8.7-2.78,10.83-6.66.52-.94.91-1.95,1.14-3,.26-1.22.39-2.46.32-3.71-.17-2.93-1.43-5.29-3.45-7.37-1.08-1.12-2.37-2.01-3.79-2.66l-20.89-9.44c-.72-.33-1.26-.93-1.42-1.71h0Z"/>
      <path fill-rule="evenodd" d="M425.6,61.46c0,.27.22.49.49.49h8.72c.27,0,.49-.22.49-.49v-22.1c0-.16,0-.32,0-.48,0-.81.07-1.63.2-2.43,1.18-7.1,7.35-12.31,14.55-12.31h1.58c.27,0,.49-.22.49-.49v-8.72c0-.27-.22-.49-.49-.49h-1.59c-12.32,0-22.75,9.19-24.26,21.42-.12,1-.19,2.02-.19,3.03,0,.16,0,.31,0,.46v22.11h0Z"/>
      <path fill-rule="evenodd" d="M393.9,13.25c-12.23,1.51-21.42,11.94-21.42,24.26s9.19,22.75,21.42,24.26c1,.12,2.02.19,3.03.19s2.02-.06,3.03-.19c12.23-1.51,21.42-11.94,21.42-24.26s-9.19-22.75-21.42-24.26c-1-.12-2.02-.19-3.03-.19s-2.02.06-3.03.19h0ZM399.56,22.99c7.01,1.25,12.12,7.4,12.12,14.51s-5.21,13.37-12.31,14.55c-.8.13-1.62.2-2.43.2s-1.63-.07-2.43-.2l-.2-.03c-7.01-1.26-12.11-7.4-12.11-14.51s5.21-13.37,12.31-14.55c.8-.13,1.62-.2,2.43-.2s1.63.07,2.43.2l.19.03h0Z"/>
      <path fill-rule="evenodd" d="M485.98,47.93c-1.61,1.61-3.53,2.8-5.63,3.52-.04.02-.09.03-.13.05-1.47.49-3.03.75-4.66.75-3.4,0-6.63-1.18-9.19-3.21-1.92-1.53-3.47-3.54-4.44-5.89,0-.02-.02-.04-.02-.06-.7-1.72-1.09-3.61-1.09-5.58s.39-3.86,1.09-5.58c0-.02.01-.04.02-.06.97-2.34,2.5-4.34,4.4-5.86,0,0,0,0,0,0,2.53-2.03,5.73-3.24,9.23-3.24s6.66,1.19,9.23,3.24c1.9,1.52,3.44,3.52,4.41,5.87,0,.02.01.04.02.06.1.24.19.49.28.73h-23.56c-.53,1.52-.82,3.15-.82,4.85s.29,3.33.82,4.85h33.23c.25,0,.46-.18.49-.43l.17-1.39c.12-1,.19-2.02.19-3.03s-.06-2.02-.19-3.03c-1.51-12.23-11.94-21.42-24.26-21.42s-22.75,9.19-24.26,21.42c-.12,1-.19,2.02-.19,3.03s.06,2.02.19,3.03c1.51,12.23,11.94,21.42,24.26,21.42,6.5,0,12.69-2.56,17.29-7.16l1.12-1.12c.19-.19.19-.5,0-.69l-6.16-6.16c-.19-.19-.5-.19-.69,0l-1.12,1.12h0Z"/>
      <path fill-rule="evenodd" d="M274.77,61.46c0,.27.22.49.49.49h8.72c.27,0,.49-.22.49-.49v-22.1c0-.16,0-.32,0-.48,0-.81.07-1.63.2-2.43,1.18-7.1,7.35-12.31,14.55-12.31h1.58c.27,0,.49-.22.49-.49v-8.72c0-.27-.22-.49-.49-.49h-1.59c-12.32,0-22.75,9.19-24.26,21.42-.12,1-.19,2.02-.19,3.03,0,.16,0,.31,0,.46v22.11h0Z"/>
      <path fill-rule="evenodd" d="M147.7,24.55c4.82,1.08,8.29,5.41,8.29,10.35v26.56c0,.27.22.49.49.49h8.72c.27,0,.49-.22.49-.49v-26.56c0-9.98-7.35-18.55-17.22-20.07-1.02-.16-2.06-.24-3.09-.24s-2.07.08-3.09.24c-9.86,1.52-17.22,10.09-17.22,20.07v26.56c0,.27.22.49.49.49h8.72c.27,0,.49-.22.49-.49v-26.56c0-4.94,3.47-9.27,8.29-10.35.76-.17,1.54-.26,2.32-.26s1.56.09,2.32.26h0Z"/>
      <path fill-rule="evenodd" d="M191.06,13.25c-12.23,1.51-21.42,11.94-21.42,24.26s9.19,22.75,21.42,24.26c1,.12,2.02.19,3.03.19s2.02-.06,3.03-.19c12.23-1.51,21.42-11.94,21.42-24.26V.49c0-.27-.22-.49-.49-.49h-8.72c-.27,0-.49.22-.49.49v37.01c0,7.2-5.21,13.37-12.31,14.55-.8.13-1.62.2-2.43.2s-1.63-.07-2.43-.2l-.2-.03c-7.01-1.26-12.11-7.4-12.11-14.51s5.21-13.37,12.31-14.55c.8-.13,1.62-.2,2.43-.2s1.63.07,2.43.2l.19.03c2.28.41,4.43,1.35,6.28,2.76.16.12.34.14.52.05.18-.09.27-.24.27-.44v-9.98c0-.21-.11-.37-.3-.45-2.03-.85-4.18-1.41-6.36-1.68-1-.12-2.02-.19-3.03-.19s-2.02.06-3.03.19h0Z"/>
      <path fill-rule="evenodd" d="M257.29,47.93c-1.61,1.61-3.53,2.8-5.63,3.52-.04.02-.09.03-.13.05-1.47.49-3.03.75-4.66.75-3.4,0-6.63-1.18-9.19-3.21-1.92-1.53-3.47-3.54-4.44-5.89,0-.02-.02-.04-.02-.06-.7-1.72-1.09-3.61-1.09-5.58s.39-3.86,1.09-5.58c0-.02.01-.04.02-.06.97-2.34,2.5-4.34,4.4-5.86,0,0,0,0,0,0,2.53-2.03,5.73-3.24,9.23-3.24s6.66,1.19,9.23,3.24c1.9,1.52,3.44,3.52,4.41,5.87,0,.02.01.04.02.06.1.24.19.49.28.73h-23.56c-.53,1.52-.82,3.15-.82,4.85s.29,3.33.82,4.85h33.23c.25,0,.46-.18.49-.43l.17-1.39c.12-1,.19-2.02.19-3.03s-.06-2.02-.19-3.03c-1.51-12.23-11.94-21.42-24.26-21.42s-22.75,9.19-24.26,21.42c-.12,1-.19,2.02-.19,3.03s.06,2.02.19,3.03c1.51,12.23,11.94,21.42,24.26,21.42,6.5,0,12.69-2.56,17.29-7.16l1.12-1.12c.19-.19.19-.5,0-.69l-6.16-6.16c-.19-.19-.5-.19-.69,0l-1.12,1.12h0Z"/>
      <path fill-rule="evenodd" d="M93.64,13.25c-12.23,1.51-21.42,11.94-21.42,24.26s9.19,22.75,21.42,24.26c1,.12,2.02.19,3.03.19s2.02-.06,3.03-.19c12.23-1.51,21.42-11.94,21.42-24.26s-9.19-22.75-21.42-24.26c-1-.12-2.02-.19-3.03-.19s-2.02.06-3.03.19h0ZM99.29,22.99c7.01,1.25,12.12,7.4,12.12,14.51s-5.21,13.37-12.31,14.55c-.8.13-1.62.2-2.43.2s-1.63-.07-2.43-.2l-.2-.03c-7.01-1.26-12.11-7.4-12.11-14.51s5.21-13.37,12.31-14.55c.8-.13,1.62-.2,2.43-.2s1.63.07,2.43.2l.19.03h0Z"/>
    </g>
  </g>
</svg>



