<?xml version="1.0" encoding="UTF-8"?>
<svg id="Capa_2" data-name="Capa 2" xmlns="http://www.w3.org/2000/svg" viewBox="0 0 448.76 70.66">
 
  <g id="Layer_1" data-name="Layer 1" fill="currentColor">
    <g>
      <g>
        <path d="M67.76,70.66l-9.03-11.05c5.42-5.96,8.73-13.87,8.73-22.55,0-18.55-15.1-33.6-33.73-33.6S0,18.51,0,37.06s15.1,33.6,33.73,33.6c.17,0,.35,0,.52,0h0s33.52,0,33.52,0ZM30.69,61.32c-12.28-1.51-21.5-11.94-21.5-24.26S18.41,14.32,30.69,12.81c1.01-.12,2.02-.19,3.04-.19s2.03.06,3.04.19c12.28,1.51,21.5,11.94,21.5,24.26s-9.22,22.75-21.5,24.26c-1.01.12-2.02.19-3.04.19s-2.03-.06-3.04-.19Z"/>
        <path d="M48.53,37.06c0-7.12-5.13-13.26-12.17-14.51l-.19-.03c-.81-.13-1.62-.2-2.44-.2s-1.64.07-2.44.2c-7.13,1.18-12.36,7.35-12.36,14.55s5.12,13.25,12.16,14.51l.21.03c.81.13,1.62.2,2.44.2s1.64-.07,2.44-.2c7.13-1.18,12.36-7.35,12.36-14.55Z"/>
      </g>
      <path fill-rule="evenodd" d="M308.88,51.68v-26.78c0-.32.26-.57.58-.57h8.38c.27,0,.49-.22.49-.49v-8.76c0-.27-.22-.49-.49-.49h-8.38c-.32,0-.57-.26-.57-.57V1.71c0-.27-.22-.49-.49-.49h-8.75c-.27,0-.49.22-.49.49v52.62c0,4.2,3.44,7.62,7.65,7.62h11.04c.27,0,.49-.22.49-.49v-8.72c0-.27-.22-.49-.49-.49h-8.38c-.32,0-.57-.26-.57-.57h0Z"/>
      <path fill-rule="evenodd" d="M264.19,27.4c-.08-.36-.07-.74,0-1.1.26-1.21,1.22-1.97,2.46-1.97h24.54c.27,0,.49-.22.49-.49v-8.76c0-.27-.22-.49-.49-.49h-24.54c-4.5,0-8.73,2.78-10.87,6.66-.52.94-.91,1.95-1.14,3-.26,1.22-.39,2.46-.32,3.71.17,2.93,1.44,5.29,3.46,7.37,1.09,1.12,2.38,2.01,3.81,2.66l20.97,9.44c.72.33,1.26.93,1.43,1.71.08.36.07.74,0,1.1-.26,1.2-1.22,1.97-2.46,1.97h-24.6c-.27,0-.49.22-.49.49v8.76c0,.27.22.49.49.49h24.6c4.5,0,8.73-2.78,10.87-6.66.52-.94.91-1.95,1.14-3,.26-1.22.39-2.46.32-3.71-.17-2.93-1.44-5.29-3.46-7.37-1.09-1.12-2.38-2.01-3.81-2.66l-20.97-9.44c-.73-.33-1.26-.93-1.43-1.71h0Z"/>
      <path fill-rule="evenodd" d="M374.07,61.46c0,.27.22.49.49.49h8.75c.27,0,.49-.22.49-.49v-22.1c0-.16,0-.32,0-.48,0-.81.07-1.63.2-2.43,1.18-7.1,7.38-12.31,14.6-12.31h1.59c.27,0,.49-.22.49-.49v-8.72c0-.27-.22-.49-.49-.49h-1.59c-12.37,0-22.84,9.19-24.36,21.42-.12,1-.19,2.02-.19,3.03,0,.16,0,.31,0,.46v22.11h0Z"/>
      <path fill-rule="evenodd" d="M342.24,13.25c-12.28,1.51-21.5,11.94-21.5,24.26s9.22,22.75,21.5,24.26c1.01.12,2.02.19,3.04.19s2.03-.06,3.04-.19c12.28-1.51,21.5-11.94,21.5-24.26s-9.22-22.75-21.5-24.26c-1.01-.12-2.02-.19-3.04-.19s-2.03.06-3.04.19h0ZM347.92,22.99c7.04,1.25,12.17,7.4,12.17,14.51s-5.23,13.37-12.36,14.55c-.81.13-1.62.2-2.44.2s-1.64-.07-2.44-.2l-.21-.03c-7.04-1.26-12.16-7.4-12.16-14.51s5.23-13.37,12.36-14.55c.81-.13,1.63-.2,2.44-.2s1.64.07,2.44.2l.19.03h0Z"/>
      <path fill-rule="evenodd" d="M434.69,47.93c-1.61,1.61-3.55,2.8-5.65,3.52-.04.02-.09.03-.13.05-1.47.49-3.05.75-4.68.75-3.42,0-6.66-1.18-9.23-3.21-1.93-1.53-3.48-3.54-4.46-5.89,0-.02-.02-.04-.02-.06-.71-1.72-1.1-3.61-1.1-5.58s.39-3.86,1.1-5.58c0-.02.01-.04.02-.06.97-2.34,2.51-4.34,4.42-5.86,0,0,0,0,0,0,2.54-2.03,5.76-3.24,9.26-3.24s6.68,1.19,9.26,3.24c1.91,1.52,3.45,3.52,4.43,5.87,0,.02.01.04.02.06.1.24.19.49.28.73h-23.65c-.53,1.52-.82,3.15-.82,4.85s.29,3.33.82,4.85h33.36c.25,0,.46-.18.49-.43l.17-1.39c.13-1,.19-2.02.19-3.03s-.06-2.02-.19-3.03c-1.52-12.23-11.99-21.42-24.36-21.42s-22.84,9.19-24.36,21.42c-.12,1-.19,2.02-.19,3.03s.06,2.02.19,3.03c1.52,12.23,11.99,21.42,24.36,21.42,6.53,0,12.74-2.56,17.35-7.16l1.13-1.12c.19-.19.19-.5,0-.69l-6.19-6.16c-.19-.19-.51-.19-.7,0l-1.13,1.12h0Z"/>
      <path fill-rule="evenodd" d="M222.64,61.46c0,.27.22.49.49.49h8.75c.27,0,.49-.22.49-.49v-22.1c0-.16,0-.32,0-.48,0-.81.07-1.63.2-2.43,1.18-7.1,7.38-12.31,14.6-12.31h1.59c.27,0,.49-.22.49-.49v-8.72c0-.27-.22-.49-.49-.49h-1.59c-12.37,0-22.84,9.19-24.36,21.42-.12,1-.19,2.02-.19,3.03,0,.16,0,.31,0,.46v22.11h0Z"/>
      <path fill-rule="evenodd" d="M95.07,24.55c4.84,1.08,8.32,5.41,8.32,10.35v26.56c0,.27.22.49.49.49h8.75c.27,0,.49-.22.49-.49v-26.56c0-9.98-7.38-18.55-17.29-20.07-1.03-.16-2.06-.24-3.1-.24s-2.08.08-3.1.24c-9.9,1.52-17.28,10.09-17.28,20.07v26.56c0,.27.22.49.49.49h8.75c.27,0,.49-.22.49-.49v-26.56c0-4.94,3.49-9.27,8.32-10.35.76-.17,1.54-.26,2.33-.26s1.56.09,2.33.26h0Z"/>
      <path fill-rule="evenodd" d="M138.6,13.25c-12.28,1.51-21.5,11.94-21.5,24.26s9.22,22.75,21.5,24.26c1.01.12,2.02.19,3.04.19s2.03-.06,3.04-.19c12.28-1.51,21.5-11.94,21.5-24.26V.49c0-.27-.22-.49-.49-.49h-8.75c-.27,0-.49.22-.49.49v37.01c0,7.2-5.23,13.37-12.36,14.55-.81.13-1.63.2-2.44.2s-1.64-.07-2.44-.2l-.21-.03c-7.04-1.26-12.16-7.4-12.16-14.51s5.23-13.37,12.36-14.55c.81-.13,1.62-.2,2.44-.2s1.64.07,2.44.2l.19.03c2.29.41,4.45,1.35,6.31,2.76.16.12.34.14.52.05.18-.09.27-.24.27-.44v-9.98c0-.21-.11-.37-.3-.45-2.04-.85-4.2-1.41-6.39-1.68-1.01-.12-2.02-.19-3.04-.19s-2.03.06-3.04.19h0Z"/>
      <path fill-rule="evenodd" d="M205.09,47.93c-1.61,1.61-3.55,2.8-5.65,3.52-.04.02-.09.03-.13.05-1.47.49-3.05.75-4.68.75-3.42,0-6.66-1.18-9.23-3.21-1.93-1.53-3.48-3.54-4.46-5.89,0-.02-.02-.04-.02-.06-.71-1.72-1.1-3.61-1.1-5.58s.39-3.86,1.1-5.58c0-.02.01-.04.02-.06.97-2.34,2.51-4.34,4.42-5.86,0,0,0,0,0,0,2.54-2.03,5.76-3.24,9.26-3.24s6.68,1.19,9.26,3.24c1.91,1.52,3.45,3.52,4.43,5.87,0,.02.01.04.02.06.1.24.19.49.28.73h-23.65c-.53,1.52-.82,3.15-.82,4.85s.29,3.33.82,4.85h33.36c.25,0,.46-.18.49-.43l.17-1.39c.13-1,.19-2.02.19-3.03s-.06-2.02-.19-3.03c-1.52-12.23-11.99-21.42-24.36-21.42s-22.84,9.19-24.36,21.42c-.12,1-.19,2.02-.19,3.03s.06,2.02.19,3.03c1.52,12.23,11.99,21.42,24.36,21.42,6.53,0,12.74-2.56,17.35-7.16l1.13-1.12c.19-.19.19-.5,0-.69l-6.19-6.16c-.19-.19-.51-.19-.7,0l-1.13,1.12h0Z"/>
    </g>
  </g>
</svg>